<svg width="23" height="22" viewBox="0 0 23 22" fill="none" xmlns="http://www.w3.org/2000/svg">
<path d="M22.2502 3.2502H19.8252V0.825195C19.8252 0.411195 19.4892 0.0751953 19.0752 0.0751953C18.6612 0.0751953 18.3252 0.411195 18.3252 0.825195V3.2502H15.9002C15.4862 3.2502 15.1502 3.5862 15.1502 4.0002C15.1502 4.4142 15.4862 4.7502 15.9002 4.7502H18.3252V7.1752C18.3252 7.5892 18.6612 7.9252 19.0752 7.9252C19.4892 7.9252 19.8252 7.5892 19.8252 7.1752V4.7502H22.2502C22.6642 4.7502 23.0002 4.4142 23.0002 4.0002C23.0002 3.5862 22.6642 3.2502 22.2502 3.2502ZM19.0752 10.1262C18.6612 10.1262 18.3252 10.4622 18.3252 10.8762V18.9542C18.3252 19.3682 17.9882 19.7042 17.5752 19.7042H3.09519C2.68319 19.7042 2.34519 19.3682 2.34519 18.9542V8.2982L9.12319 12.8162C9.49119 13.0622 9.91319 13.1862 10.3362 13.1862C10.7582 13.1862 11.1802 13.0622 11.5482 12.8162L16.0782 9.8032C16.4142 9.5802 16.5062 9.1272 16.2822 8.7912C16.0592 8.4592 15.6072 8.36619 15.2702 8.5912L10.7402 11.6052C10.4942 11.7672 10.1772 11.7682 9.93219 11.6052L2.34619 6.5452V5.5002C2.34619 5.0862 2.68319 4.7502 3.09619 4.7502H12.1902C12.6042 4.7502 12.9402 4.4142 12.9402 4.0002C12.9402 3.5862 12.6042 3.2502 12.1902 3.2502H3.09619C1.85619 3.2502 0.846191 4.2602 0.846191 5.5002V18.9552C0.846191 20.1952 1.85619 21.2052 3.09619 21.2052H17.5762C18.8162 21.2052 19.8262 20.1952 19.8262 18.9552V10.8772C19.8262 10.4622 19.4892 10.1272 19.0762 10.1272L19.0752 10.1262Z" fill="black"/>
</svg>
