<svg width="20" height="21" viewBox="0 0 20 21" fill="none" xmlns="http://www.w3.org/2000/svg">
<path d="M19.6978 14.538C19.6778 14.522 17.5578 12.898 17.5948 8.508C17.6148 5.976 16.7828 3.726 15.2478 2.173C13.8728 0.78 12.0108 0.01 10.0058 0H9.99277C7.98877 0.01 6.12677 0.78 4.75077 2.174C3.21677 3.727 2.38277 5.976 2.40477 8.508C2.44177 12.838 0.384768 14.475 0.302768 14.538C0.0427683 14.731 -0.0632318 15.068 0.0377682 15.376C0.139768 15.684 0.427768 15.891 0.749768 15.891H5.66977C5.77177 18.201 7.66677 20.051 9.99977 20.051C12.3328 20.051 14.2258 18.201 14.3268 15.891H19.2488C19.5708 15.891 19.8588 15.685 19.9588 15.377C20.0618 15.07 19.9558 14.732 19.6958 14.539L19.6978 14.538ZM10.0008 18.548C8.49577 18.548 7.27077 17.371 7.17277 15.89H12.8288C12.7288 17.37 11.5058 18.55 10.0008 18.55V18.548ZM2.38077 14.39C3.12077 13.258 3.92877 11.362 3.90477 8.494C3.88677 6.334 4.54877 4.512 5.81777 3.227C6.91077 2.12 8.39777 1.507 10.0008 1.5C11.6038 1.508 13.0878 2.12 14.1808 3.228C15.4508 4.513 16.1138 6.334 16.0958 8.495C16.0718 11.363 16.8808 13.26 17.6208 14.391H2.38077V14.39Z" fill="#1C1C1C"/>
</svg>
