<svg width="22" height="20" viewBox="0 0 22 20" fill="none" xmlns="http://www.w3.org/2000/svg">
<path d="M20.6584 0.131295C20.3302 -0.0297049 19.9391 0.105045 19.7781 0.428795L17.2721 5.48279L15.782 3.89904C15.5344 3.63392 15.1187 3.62254 14.8545 3.87104C14.5902 4.11954 14.578 4.53605 14.8265 4.79855L16.9641 7.07004C17.0892 7.20129 17.2616 7.27567 17.4419 7.27567C17.4734 7.27567 17.5057 7.27305 17.5381 7.26867C17.7507 7.23717 17.9336 7.10242 18.0299 6.90992L20.9541 1.01242C21.1151 0.68692 20.9821 0.29317 20.6566 0.13217L20.6584 0.131295ZM16.6404 14.5469C16.5677 14.4909 14.8519 13.125 14.8816 9.50692C14.9009 7.37804 14.1991 5.48542 12.9076 4.17817C11.7491 3.00567 10.1811 2.35555 8.49236 2.34767H8.48098C6.79223 2.35642 5.22423 3.00392 4.06573 4.17817C2.7751 5.4863 2.07335 7.37892 2.09085 9.50867C2.12235 13.125 0.408229 14.49 0.340854 14.5425C0.113354 14.7114 0.0197292 15.0063 0.108104 15.2758C0.197354 15.5453 0.449354 15.7264 0.731104 15.7264H4.3011C4.3781 17.9752 6.21998 19.7864 8.48798 19.7864C10.756 19.7864 12.5987 17.9752 12.6749 15.7264H16.2466C16.5266 15.7264 16.7751 15.5462 16.8652 15.2802C16.9554 15.0142 16.8635 14.7175 16.6412 14.5469H16.6404ZM8.4871 17.9489C7.23235 17.9489 6.2121 16.9628 6.1386 15.7264H10.8356C10.7612 16.9628 9.74185 17.9489 8.4871 17.9489Z" fill="white"/>
</svg>
