<svg width="20" height="21" viewBox="0 0 20 21" fill="none" xmlns="http://www.w3.org/2000/svg">
<path d="M19.6968 15.4682C19.6768 15.4522 17.5568 13.8282 17.5938 9.43818C17.6138 6.90618 16.7818 4.65618 15.2468 3.10318C13.8718 1.71018 12.0098 0.940176 10.0048 0.930176H9.99179C7.98779 0.940176 6.12579 1.71018 4.74979 3.10418C3.21579 4.65718 2.38179 6.90618 2.40379 9.43818C2.44079 13.7682 0.383792 15.4052 0.301792 15.4682C0.0417917 15.6612 -0.0642084 15.9982 0.0367916 16.3062C0.138792 16.6142 0.426792 16.8212 0.748792 16.8212H5.66879C5.77079 19.1312 7.66579 20.9812 9.99879 20.9812C12.3318 20.9812 14.2248 19.1312 14.3258 16.8212H19.2478C19.5698 16.8212 19.8578 16.6152 19.9578 16.3072C20.0608 16.0002 19.9548 15.6622 19.6948 15.4692L19.6968 15.4682ZM9.99979 19.4782C8.49479 19.4782 7.26979 18.3012 7.17179 16.8202H12.8278C12.7278 18.3002 11.5048 19.4802 9.99979 19.4802V19.4782ZM2.37979 15.3202C3.11979 14.1882 3.92779 12.2922 3.90379 9.42418C3.88579 7.26418 4.54779 5.44218 5.81679 4.15718C6.90979 3.05018 8.39679 2.43718 9.99979 2.43018C11.6028 2.43818 13.0868 3.05018 14.1798 4.15818C15.4498 5.44318 16.1128 7.26418 16.0948 9.42518C16.0708 12.2932 16.8798 14.1902 17.6198 15.3212H2.37979V15.3202Z" fill="#FF6600"/>
</svg>
