<svg width="18" height="21" viewBox="0 0 18 21" fill="none" xmlns="http://www.w3.org/2000/svg">
<path d="M8.99991 10.816C10.3549 10.816 11.8719 10.666 12.8399 9.56001C13.6539 8.63001 13.9179 7.19201 13.6459 5.16801C13.2659 2.34301 11.5289 0.656006 8.99991 0.656006C6.47091 0.656006 4.73391 2.34301 4.35391 5.17001C4.08191 7.19201 4.3459 8.63001 5.1599 9.56001C6.1279 10.667 7.64491 10.816 8.99991 10.816ZM5.83991 5.36801C6.00191 4.16801 6.62691 2.15601 8.99991 2.15601C11.3729 2.15601 11.9979 4.16901 12.1599 5.36801C12.3669 6.91801 12.2169 7.99501 11.7099 8.57301C11.2549 9.09301 10.4439 9.31601 8.99991 9.31601C7.55591 9.31601 6.7449 9.09301 6.28991 8.57301C5.78291 7.99501 5.63291 6.91701 5.83991 5.36801ZM17.2799 18.236C16.4029 14.71 12.9979 12.246 8.99991 12.246C5.00191 12.246 1.59691 14.71 0.719905 18.236C0.547905 18.928 0.691905 19.636 1.1149 20.176C1.5229 20.696 2.15491 20.996 2.84791 20.996H15.1519C15.8449 20.996 16.4769 20.696 16.8849 20.176C17.3089 19.636 17.4519 18.929 17.2789 18.236H17.2799ZM15.7039 19.252C15.5779 19.412 15.3879 19.498 15.1519 19.498H2.84791C2.61291 19.498 2.42191 19.413 2.29591 19.252C2.15891 19.078 2.11591 18.84 2.17591 18.598C2.88591 15.743 5.69291 13.748 8.99991 13.748C12.3069 13.748 15.1139 15.742 15.8239 18.598C15.8839 18.84 15.8409 19.078 15.7039 19.252Z" fill="#FF6600"/>
</svg>
