<svg width="13" height="13" viewBox="0 0 13 13" fill="none" xmlns="http://www.w3.org/2000/svg">
<path d="M7.77881 0.401247L5.18631 0.394997H5.18506C2.45131 0.394997 0.310059 2.53687 0.310059 5.27125C0.310059 7.8325 2.30131 9.77499 4.97568 9.87749V12.27C4.97568 12.3375 5.00318 12.4487 5.05068 12.5219C5.13943 12.6625 5.29068 12.7387 5.44568 12.7387C5.53193 12.7387 5.61881 12.715 5.69693 12.665C5.86193 12.56 9.74256 10.0775 10.7519 9.22375C11.9407 8.2175 12.6519 6.7425 12.6538 5.27875V5.26812C12.6501 2.53875 10.5101 0.401247 7.77881 0.400622V0.401247ZM10.1457 8.50875C9.43693 9.10875 7.10693 10.6369 5.91318 11.4106V9.41875C5.91318 9.16 5.70381 8.95 5.44443 8.95H5.19693C2.90943 8.95 1.24818 7.4025 1.24818 5.27125C1.24818 3.0625 2.97818 1.3325 5.18568 1.3325L7.77756 1.33875H7.77881C9.98631 1.33875 11.7163 3.0675 11.7176 5.27375C11.7157 6.4675 11.1288 7.67625 10.1463 8.50875H10.1457Z" fill="#657786"/>
</svg>
