<svg width="13" height="13" viewBox="0 0 13 13" fill="none" xmlns="http://www.w3.org/2000/svg">
<path d="M6.5 12.5238H6.49125C4.87687 12.4938 0.21875 8.285 0.21875 4.29875C0.21875 2.38375 1.79687 0.702499 3.59562 0.702499C5.02687 0.702499 5.98937 1.69 6.49937 2.40875C7.00812 1.69125 7.97062 0.702499 9.4025 0.702499C11.2025 0.702499 12.78 2.38375 12.78 4.29937C12.78 8.28437 8.12125 12.4931 6.50687 12.5225H6.5V12.5238ZM3.59625 1.64062C2.29625 1.64062 1.15687 2.88312 1.15687 4.3C1.15687 7.8875 5.55312 11.5475 6.50062 11.5863C7.44937 11.5475 11.8444 7.88812 11.8444 4.3C11.8444 2.88312 10.705 1.64062 9.405 1.64062C7.825 1.64062 6.9425 3.47562 6.935 3.49375C6.79125 3.845 6.2125 3.845 6.06812 3.49375C6.05937 3.475 5.1775 1.64062 3.59687 1.64062H3.59625Z" fill="#657786"/>
</svg>
