<svg width="21" height="20" viewBox="0 0 21 20" fill="none" xmlns="http://www.w3.org/2000/svg">
<path d="M20.3351 2.85253H18.2132V0.728027C18.2132 0.365777 17.9192 0.0717773 17.557 0.0717773C17.1947 0.0717773 16.9007 0.365777 16.9007 0.728027V2.85253H14.7788C14.4166 2.85253 14.1226 3.14565 14.1226 3.50878C14.1226 3.8719 14.4166 4.16503 14.7788 4.16503H16.9016V6.28603C16.9016 6.64828 17.1956 6.94228 17.5578 6.94228C17.9201 6.94228 18.2141 6.64828 18.2141 6.28603V4.16503H20.336C20.6991 4.16503 20.9922 3.87015 20.9922 3.50878C20.9922 3.1474 20.6982 2.85253 20.336 2.85253H20.3351ZM14.8838 9.50778C14.9013 7.37803 14.1996 5.4854 12.9081 4.17903C11.7496 3.00478 10.1816 2.35553 8.49284 2.34765H8.48147C6.79272 2.3564 5.22472 3.0039 4.06622 4.17815C2.77559 5.48628 2.07384 7.3789 2.09134 9.50865C2.12284 13.125 0.408717 14.49 0.341342 14.5425C0.113842 14.7114 0.0202174 15.0063 0.108592 15.2758C0.197842 15.5453 0.449842 15.7264 0.731592 15.7264H4.85809C4.95434 17.6742 6.55559 19.2325 8.52784 19.2325C10.5001 19.2325 12.1005 17.675 12.1976 15.7264H16.2445C16.5245 15.7264 16.773 15.5462 16.8631 15.2802C16.9532 15.0141 16.8631 14.7175 16.64 14.5469C16.5682 14.4909 14.8523 13.125 14.883 9.5069L14.8838 9.50778ZM8.52697 17.92C7.27922 17.92 6.26422 16.9488 6.16972 15.7255H10.8842C10.7897 16.9505 9.77472 17.9192 8.52697 17.9192V17.92ZM2.14822 14.4139C2.76247 13.4558 3.42309 11.8729 3.40297 9.49815C3.38809 7.6939 3.94022 6.17315 4.99984 5.10128C5.91247 4.17728 7.15059 3.66628 8.48759 3.66103C9.82372 3.66715 11.0627 4.17728 11.9745 5.10128C13.0332 6.17403 13.5845 7.6939 13.5696 9.49815C13.5503 11.8729 14.2101 13.4558 14.827 14.4139H2.14822Z" fill="#FF6600"/>
</svg>
